<?xml version="1.0" standalone="no"?>
<!DOCTYPE svg PUBLIC "-//W3C//DTD SVG 20010904//EN"
 "http://www.w3.org/TR/2001/REC-SVG-20010904/DTD/svg10.dtd">
<svg version="1.0" xmlns="http://www.w3.org/2000/svg"
 width="512.000000pt" height="512.000000pt" viewBox="0 0 512.000000 512.000000"
 preserveAspectRatio="xMidYMid meet">
<metadata>
Created by potrace 1.11, written by Peter Selinger 2001-2013
</metadata>
<g transform="translate(0.000000,512.000000) scale(0.100000,-0.100000)"
fill="#000000" stroke="none">
<path d="M2255 4910 c-147 -15 -425 -71 -450 -90 -5 -4 -35 -15 -66 -24 -31
-9 -69 -23 -85 -31 -16 -8 -32 -15 -36 -15 -5 0 -42 -16 -84 -35 -41 -19 -79
-35 -84 -35 -5 0 -10 -3 -12 -7 -1 -5 -23 -18 -48 -30 -25 -13 -54 -29 -65
-35 -191 -120 -287 -193 -424 -324 -59 -56 -64 -64 -64 -103 0 -60 40 -101
100 -101 38 0 49 6 110 63 37 34 70 64 73 67 14 14 149 118 175 134 16 11 34
23 40 28 23 19 92 62 120 75 17 7 58 28 92 46 313 167 708 245 1096 217 168
-13 246 -25 387 -63 170 -46 359 -121 471 -189 25 -15 49 -28 52 -28 15 0 253
-171 313 -225 102 -92 192 -188 287 -304 173 -213 344 -583 393 -851 8 -41 19
-95 24 -120 6 -25 13 -135 16 -245 7 -269 5 -262 59 -286 40 -18 47 -18 79 -5
67 28 69 39 63 289 -3 143 -10 249 -20 297 -9 41 -22 107 -30 145 -16 75 -52
207 -66 240 -5 11 -14 36 -21 55 -30 85 -79 193 -136 296 -59 107 -172 281
-204 315 -8 8 -28 33 -45 55 -99 131 -329 337 -500 448 -49 32 -101 66 -115
75 -29 19 -275 141 -285 141 -4 0 -21 7 -38 15 -91 42 -374 116 -519 135 -114
15 -444 21 -553 10z"/>
<path d="M622 3751 c-76 -30 -113 -104 -92 -181 8 -28 27 -52 73 -91 103 -88
158 -153 202 -239 23 -45 28 -72 35 -174 15 -215 74 -494 126 -595 8 -14 14
-29 14 -33 0 -8 73 -160 93 -193 99 -166 229 -322 362 -432 120 -101 103 -87
200 -149 233 -149 515 -265 765 -314 88 -18 313 -40 403 -40 82 0 290 20 372
35 185 35 415 121 601 226 173 97 383 140 539 109 119 -23 148 -23 188 0 48
29 77 77 77 129 0 43 -16 77 -142 305 -27 49 -54 98 -59 110 -5 12 -20 39 -32
61 -13 22 -45 81 -72 130 -109 203 -240 434 -280 495 -99 150 -326 387 -444
466 -20 13 -56 38 -81 55 -58 41 -95 64 -150 91 -25 13 -46 26 -48 31 -2 4 -8
7 -13 7 -6 0 -36 12 -67 27 -131 62 -308 117 -462 143 -216 37 -309 40 -1196
39 -802 0 -872 -2 -912 -18z m1180 -247 c4 -3 -16 -48 -43 -99 -45 -86 -75
-170 -101 -285 -14 -59 -14 -319 -1 -390 28 -142 81 -273 161 -395 52 -80 65
-95 144 -173 115 -115 184 -162 343 -233 242 -108 603 -105 837 7 86 40 151
76 181 98 187 141 298 274 376 454 33 76 68 188 77 247 l6 39 19 -24 c23 -30
118 -199 187 -332 88 -171 78 -305 -32 -427 -30 -33 -263 -185 -348 -227 -189
-92 -247 -113 -453 -160 -115 -26 -334 -37 -488 -24 -177 14 -373 54 -462 94
-16 8 -41 17 -55 21 -43 13 -223 111 -296 161 -267 185 -478 431 -612 714 -61
127 -95 217 -112 290 -7 30 -18 75 -26 100 -16 54 -34 214 -34 307 0 88 13
131 50 173 57 63 82 68 396 69 154 1 283 -2 286 -5z m623 -4 c-3 -6 -20 -17
-37 -26 -37 -19 -39 -21 -107 -81 -243 -218 -270 -615 -59 -868 149 -177 351
-256 582 -227 310 39 546 305 550 622 1 99 -24 213 -61 278 -14 24 -23 46 -20
48 7 7 75 -34 133 -81 28 -22 63 -49 77 -60 15 -12 51 -45 82 -74 52 -49 55
-55 54 -99 -1 -163 -58 -362 -136 -482 -48 -73 -59 -87 -134 -167 -99 -107
-279 -204 -441 -239 -106 -23 -285 -23 -388 0 -73 16 -190 59 -220 80 -8 6
-31 20 -50 30 -42 23 -110 77 -166 131 -216 212 -308 524 -244 825 27 129 85
256 159 352 l36 47 198 1 c131 0 196 -3 192 -10z"/>
<path d="M285 3111 c-41 -18 -55 -46 -70 -147 -36 -246 -36 -428 0 -690 15
-106 65 -324 85 -369 5 -11 14 -38 20 -60 13 -42 31 -86 86 -201 19 -39 34
-76 34 -82 0 -7 4 -12 9 -12 5 0 13 -10 17 -22 12 -40 75 -140 191 -302 135
-188 396 -426 618 -563 126 -77 293 -161 374 -188 29 -9 65 -24 80 -31 14 -8
31 -14 36 -14 6 0 46 -11 89 -25 43 -14 115 -32 160 -40 44 -9 106 -21 136
-28 72 -15 605 -15 680 0 185 37 267 54 280 60 8 3 47 16 85 28 183 58 415
166 527 246 14 10 29 19 32 19 3 0 14 7 24 16 9 8 50 39 90 69 128 92 256 211
362 334 46 54 55 70 55 104 0 31 -7 45 -33 68 -56 50 -110 37 -176 -41 -44
-50 -163 -168 -221 -218 -27 -24 -59 -51 -70 -61 -85 -74 -349 -224 -530 -299
-69 -29 -231 -76 -345 -101 -248 -55 -592 -55 -840 0 -120 26 -283 74 -336
100 -23 10 -44 19 -48 19 -27 0 -325 160 -347 186 -6 8 -15 14 -20 14 -5 0
-42 25 -82 55 -214 164 -367 328 -500 534 -79 122 -78 121 -125 216 -63 127
-79 164 -111 265 -57 178 -62 203 -87 374 -22 146 -25 195 -21 336 3 91 12
209 20 262 16 111 14 138 -17 166 -24 24 -82 35 -111 23z"/>
</g>
</svg>
